<svg version="1.2" xmlns="http://www.w3.org/2000/svg" viewBox="0 0 1794 286" width="1794" height="286"><defs><clipPath clipPathUnits="userSpaceOnUse" id="cp1"><path d="m-103-857h2000v2000h-2000z"/></clipPath></defs><style>.a{fill:#0a1627}.b{fill:#fe0039}.c{fill:#c1c1c1}</style><path class="a" d="m0 0h1794v286h-1794z"/><g clip-path="url(#cp1)"><path fill-rule="evenodd" class="b" d="m241.9 102.1q15.2 0 25 6.2 9.8 6.1 10.1 18.3v1.3h-23.9v-0.4q0-3.5-2.5-5.8-2.6-2.3-7.8-2.3-5 0-7.7 1.5-2.8 1.5-2.8 3.7 0 3.1 3.7 4.6 3.7 1.5 11.9 3.1 9.6 2 15.8 4.1 6.1 2.2 10.7 7 4.6 4.8 4.8 13.2 0 14-9.5 20.8-9.6 6.8-25.5 6.8-18.6 0-28.9-6.2-10.3-6.2-10.3-22h24.1q0 6 3.1 8 3.1 2 9.7 2 4.8 0 8-1 3.2-1.1 3.2-4.3 0-2.9-3.5-4.3-3.5-1.5-11.5-3.1-9.7-2.1-16-4.3-6.4-2.3-11.1-7.4-4.7-5.2-4.7-14.1 0-13 10.1-19.2 10-6.2 25.5-6.2zm89.4 0q20.5 0 31.7 10.5 11.2 10.5 11.2 30.6 0 20-11.2 30.5-11.2 10.5-31.7 10.5-20.5 0-31.7-10.4-11.1-10.4-11.1-30.6 0-20.2 11.1-30.7 11.2-10.4 31.7-10.4zm0 19q-8.2 0-12.5 5-4.2 5-4.2 13.4v7.4q0 8.4 4.2 13.3 4.3 5 12.5 5 8.2 0 12.5-5 4.3-4.9 4.3-13.3v-7.4q0-8.4-4.3-13.4-4.3-5-12.5-5zm128.3 2.7h-26v59.1h-25.5v-59.1h-26v-20.3h77.5zm51-21.7q20.6 0 31.8 10.5 11.2 10.5 11.2 30.6 0 20-11.2 30.5-11.2 10.5-31.8 10.5-20.5 0-31.6-10.4-11.2-10.4-11.2-30.6 0-20.2 11.2-30.7 11.1-10.4 31.6-10.4zm0 19q-8.1 0-12.4 5-4.3 5-4.3 13.4v7.4q0 8.4 4.3 13.3 4.3 5 12.4 5 8.2 0 12.6-5 4.3-4.9 4.3-13.3v-7.4q0-8.4-4.3-13.4-4.4-5-12.6-5z"/><path fill-rule="evenodd" class="c" d="m599.9 102.1q17.7 0 27.9 8.8 10.3 8.9 10.3 25.2h-24.3q0-6.9-3.7-10.9-3.6-4.1-10.3-4.1-7.7 0-11.3 4.9-3.7 4.8-3.7 13.5v7.4q0 8.5 3.7 13.4 3.6 4.9 11.1 4.9 7.4 0 11.2-3.8 3.8-3.8 3.8-10.7h23.5q0 16.2-10 24.9-10 8.6-28.2 8.6-20.3 0-30.7-10.3-10.5-10.4-10.5-30.7 0-20.3 10.5-30.7 10.4-10.4 30.7-10.4zm91.4 0q20.5 0 31.7 10.5 11.2 10.5 11.2 30.6 0 20-11.2 30.5-11.2 10.5-31.7 10.5-20.6 0-31.7-10.4-11.1-10.4-11.1-30.6 0-20.2 11.1-30.7 11.1-10.4 31.7-10.4zm0 19q-8.2 0-12.5 5-4.2 5-4.2 13.4v7.4q0 8.4 4.2 13.3 4.3 5 12.5 5 8.2 0 12.5-5 4.3-4.9 4.3-13.3v-7.4q0-8.4-4.3-13.4-4.3-5-12.5-5zm135.6 61.8h-22.2l-33.4-38.6v38.6h-23.4v-79.4h22.3l33.3 39.1v-39.1h23.4zm50.4-80.8q15.2 0.1 25 6.2 9.8 6.2 10.1 18.3v1.4h-23.9v-0.5q0-3.4-2.5-5.7-2.6-2.4-7.8-2.4-5 0-7.7 1.5-2.8 1.5-2.8 3.7 0 3.2 3.7 4.6 3.7 1.6 11.9 3.2 9.6 1.9 15.8 4.1 6.1 2.1 10.7 6.9 4.7 4.9 4.8 13.2 0 14.1-9.5 20.9-9.6 6.8-25.5 6.8-18.6 0-28.9-6.3-10.3-6.2-10.3-22h24.1q0 6 3.1 8 3.1 2.1 9.7 2 4.9 0 8-1 3.2-1 3.2-4.3 0-2.8-3.5-4.3-3.5-1.4-11.5-3-9.7-2.1-16-4.4-6.4-2.2-11.1-7.4-4.7-5.2-4.7-14.1 0-13 10.1-19.2 10.1-6.1 25.5-6.2zm121.6 21.7h-26v59.1h-25.5v-59.1h-26v-20.3h77.5zm87 4.1q0 7.2-4 13.1-3.9 5.9-11.4 8.7l17.7 33.2h-28.6l-14.1-29h-9.5v29h-25.5v-79.4h48.6q8.5 0 14.6 3.3 6 3.3 9.1 8.9 3.1 5.6 3.1 12.2zm-26 1q0-3.1-2.1-5.2-2-2.1-5-2.1h-16.8v14.7h16.8q3 0 5-2.2 2.1-2.1 2.1-5.2zm119.4 22q0 16.3-10.3 24.8-10.2 8.6-29.2 8.6-18.9 0-29.2-8.6-10.3-8.5-10.3-24.8v-47.4h25.5v47.1q0 6.7 3.6 10.7 3.5 3.9 10.3 3.9 6.8 0 10.5-4 3.6-4 3.6-10.6v-47.1h25.5zm54.9-48.8q17.6 0 27.9 8.9 10.3 8.8 10.3 25.2h-24.4q0-6.9-3.6-11-3.6-4-10.3-4-7.8 0-11.4 4.8-3.6 4.9-3.6 13.5v7.4q0 8.5 3.6 13.4 3.6 4.9 11.1 4.9 7.4 0 11.2-3.8 3.8-3.8 3.8-10.7h23.6q0 16.3-10 24.9-10 8.7-28.2 8.7-20.3 0-30.8-10.4-10.4-10.4-10.4-30.7 0-20.3 10.4-30.7 10.5-10.4 30.8-10.4zm123.5 21.7h-25.9v59.1h-25.5v-59.1h-26.1v-20.3h77.5zm38.3 59.1h-25.5v-79.4h25.5zm57.7-80.7q20.5 0 31.7 10.5 11.2 10.5 11.2 30.5 0 20.1-11.2 30.6-11.2 10.5-31.7 10.5-20.5 0-31.7-10.4-11.1-10.5-11.1-30.7 0-20.1 11.1-30.6 11.2-10.4 31.7-10.4zm0 19q-8.2 0-12.5 5-4.2 4.9-4.2 13.4v7.3q0 8.5 4.2 13.4 4.3 5 12.5 5 8.2 0 12.5-5 4.3-4.9 4.3-13.4v-7.3q0-8.5-4.3-13.4-4.3-5-12.5-5zm135.6 61.7h-22.3l-33.3-38.5v38.5h-23.4v-79.3h22.3l33.3 39.1v-39.1h23.4z"/></g></svg>